<svg width="90" height="90" viewBox="-2 -21 94 90" fill="none" xmlns="http://www.w3.org/2000/svg">
  <path 
    d="M26.808 2.131h32.446l27.27 12.51-1.941 1.483-7.118-2.039 9.152 17.05 3.328 12.602L86.986 48H76.448l2.866-3.614-10.908-3.706-2.626-2.858-3.081-3.43 2.348 3.921-4.961 4.683L61.75 48H49.363l3.236-4.263-3.236-12.602-4.622 12.602V48H32.574l3.57-5.652-1.571-9.916-.031-.02h.017l-9.381-6.185 6.836 6.117-3.173 6.853-11.933 6.764L16.085 48H2.311l5.824-4.263 7.95-12.602 4.159-11.027L4.53 21.591 0 16.309l5.269-4.633-.185-2.502 5.084-4.903V1.483L12.387 0l1.017 2.131h1.664V.649L17.749 0l1.663 2.131Z"
    fill="#CDC9FF"
  />
</svg>